<svg width="24" height="24" viewBox="0 0 24 24" fill="none" xmlns="http://www.w3.org/2000/svg">
<g id="back">
<path id="Vector" d="M9.08626 12.1046L15.3323 18.3508C15.4259 18.4443 15.4759 18.5591 15.4823 18.6951C15.4888 18.8309 15.4388 18.952 15.3323 19.0583C15.2259 19.1648 15.108 19.2181 14.9785 19.2181C14.849 19.2181 14.7311 19.1648 14.6248 19.0583L8.23626 12.6701C8.14909 12.5827 8.08784 12.4936 8.05251 12.4026C8.01734 12.3116 7.99976 12.2122 7.99976 12.1046C7.99976 11.9969 8.01734 11.8976 8.05251 11.8066C8.08784 11.7156 8.14909 11.6264 8.23626 11.5391L14.6248 5.15081C14.7183 5.05714 14.833 5.00714 14.969 5.0008C15.1048 4.9943 15.2259 5.04431 15.3323 5.15081C15.4388 5.25714 15.492 5.37506 15.492 5.50456C15.492 5.63406 15.4388 5.75197 15.3323 5.85831L9.08626 12.1046Z" fill="#6B6B6B"/>
</g>
</svg>
