<svg width="24" height="24" viewBox="0 0 24 24" fill="none" xmlns="http://www.w3.org/2000/svg">
<g id="right">
<g id="arrow_forward_ios">
<mask id="mask0_52_547" style="mask-type:alpha" maskUnits="userSpaceOnUse" x="0" y="0" width="24" height="24">
<rect id="Bounding box" width="24" height="24" transform="matrix(-1 0 0 1 24 0)" fill="#D9D9D9"/>
</mask>
<g mask="url(#mask0_52_547)">
<path id="arrow_forward_ios_2" d="M9.52501 12L16.875 4.65C17.125 4.4 17.2458 4.10417 17.2375 3.7625C17.2292 3.42083 17.1 3.125 16.85 2.875C16.6 2.625 16.3042 2.5 15.9625 2.5C15.6208 2.5 15.325 2.625 15.075 2.875L7.40001 10.575C7.20001 10.775 7.05001 11 6.95001 11.25C6.85001 11.5 6.80001 11.75 6.80001 12C6.80001 12.25 6.85001 12.5 6.95001 12.75C7.05001 13 7.20001 13.225 7.40001 13.425L15.1 21.125C15.35 21.375 15.6417 21.4958 15.975 21.4875C16.3083 21.4792 16.6 21.35 16.85 21.1C17.1 20.85 17.225 20.5542 17.225 20.2125C17.225 19.8708 17.1 19.575 16.85 19.325L9.52501 12Z" fill="#373737"/>
</g>
</g>
</g>
</svg>
